:FULLY-SPECIFIED
:FORCE-ALL-JOINTS-BE-3DOF
:DEGREES
102
root 7.30973 16.7241 -26.8018 3.51542 11.4609 -3.85174
lfemur -26.8648 -1.65338 -11.8217
ltibia 38.9818 0 0
lfoot -17.6472 -5.6421 0
ltoes 23.5596 0 0
rfemur -34.693 -3.61671 2.24998
rtibia 82.8333 0 0
rfoot 26.5544 16.785 0
rtoes 18.1607 0 0
lowerback 1.54139 1.70918 0.48914
upperback -0.875048 2.3395 1.96444
thorax -1.81984 1.1816 1.66202
lowerneck -10.4896 -4.91377 2.42082
upperneck -1.25005 -6.81193 0.857161
head 1.31872 -3.3792 -0.43021
lclavicle -9.11726e-15 -4.8405e-16 0
lhumerus -46.5897 -9.96657 93.7494
lradius 48.5488 0 0
lwrist 14.5226 0 0
lhand 5.95408 8.30558 0
lfingers 7.12502 0 0
lthumb 31.2652 35.5142 0
rclavicle -9.11726e-15 -4.8405e-16 0
rhumerus -42.1345 2.18609 -72.7996
rradius 48.6761 0 0
rwrist 5.12765 0 0
rhand -24.0973 -16.3408 0
rfingers 7.12502 0 0
rthumb 2.39484 -46.4878 0
103
root 7.36495 16.7259 -26.7633 3.03453 11.7493 -3.64306
lfemur -26.0484 -2.00582 -12.0598
ltibia 38.5784 0 0
lfoot -17.5796 -6.28394 0
ltoes 23.9191 0 0
rfemur -36.3624 -3.77979 1.60542
rtibia 85.1638 0 0
rfoot 28.9415 18.4063 0
rtoes 18.8223 0 0
lowerback 1.92179 1.55642 0.283518
upperback -0.747283 2.13363 2.00266
thorax -1.90917 1.08003 1.81236
lowerneck -10.5168 -4.91922 2.35223
upperneck -1.03414 -6.81671 0.842068
head 1.39396 -3.37844 -0.427854
lclavicle -9.5542e-15 -1.10983e-15 0
lhumerus -46.6655 -10.1555 93.8544
lradius 48.7402 0 0
lwrist 14.7328 0 0
lhand 6.6896 8.54708 0
lfingers 7.12502 0 0
lthumb 31.9695 35.6544 0
rclavicle -9.5542e-15 -1.10983e-15 0
rhumerus -42.3507 1.9929 -71.8331
rradius 49.073 0 0
rwrist 4.86428 0 0
rhand -23.7935 -16.1756 0
rfingers 7.12502 0 0
rthumb 2.68637 -46.2893 0
104
root 7.42018 16.7277 -26.7248 2.55276 11.9864 -3.43624
lfemur -25.2348 -2.26512 -12.2963
ltibia 38.1796 0 0
lfoot -17.5047 -6.85507 0
ltoes 24.2596 0 0
rfemur -38.0119 -4.01816 1.18425
rtibia 87.0409 0 0
rfoot 30.906 19.8476 0
rtoes 19.1682 0 0
lowerback 2.31703 1.40847 0.0799645
upperback -0.608823 1.93129 2.03051
thorax -1.99252 0.979932 1.95421
lowerneck -10.549 -4.90892 2.28622
upperneck -0.833542 -6.80062 0.831058
head 1.46546 -3.36747 -0.423323
lclavicle -9.93663e-15 -1.55099e-15 0
lhumerus -46.7083 -10.3429 93.9361
lradius 48.9186 0 0
lwrist 14.9123 0 0
lhand 7.33808 8.74787 0
lfingers 7.12502 0 0
lthumb 32.5906 35.7664 0
rclavicle -9.93663e-15 -1.55099e-15 0
rhumerus -42.5318 1.77194 -70.9039
rradius 49.5059 0 0
rwrist 4.56857 0 0
rhand -23.3725 -16.0368 0
rfingers 7.12502 0 0
rthumb 3.09052 -46.105 0
105
root 7.4754 16.7295 -26.6862 2.0716 12.1663 -3.23273
lfemur -24.4278 -2.42153 -12.5286
ltibia 37.7862 0 0
lfoot -17.4214 -7.34318 0
ltoes 24.5756 0 0
rfemur -39.6326 -4.33958 1.01159
rtibia 88.4096 0 0
rfoot 32.3963 21.085 0
rtoes 19.1638 0 0
lowerback 2.72739 1.26661 -0.120542
upperback -0.459142 1.73392 2.04698
thorax -2.06916 0.881994 2.08635
lowerneck -10.5868 -4.8815 2.22352
upperneck -0.650529 -6.76189 0.824468
head 1.53261 -3.34544 -0.416492
lclavicle -1.02609e-14 -1.78494e-15 0
lhumerus -46.7151 -10.5271 93.9913
lradius 49.0821 0 0
lwrist 15.0576 0 0
lhand 7.88846 8.90305 0
lfingers 7.12502 0 0
lthumb 33.1177 35.8468 0
rclavicle -1.02609e-14 -1.78494e-15 0
rhumerus -42.673 1.52145 -70.0187
rradius 49.9775 0 0
rwrist 4.23816 0 0
rhand -22.8229 -15.9272 0
rfingers 7.12502 0 0
rthumb 3.61806 -45.9368 0
106
root 7.53062 16.7313 -26.6477 1.59258 12.283 -3.03397
lfemur -23.6313 -2.46527 -12.7543
ltibia 37.3992 0 0
lfoot -17.3285 -7.73592 0
ltoes 24.8613 0 0
rfemur -41.2156 -4.75181 1.11259
rtibia 89.2151 0 0
rfoot 33.361 22.0951 0
rtoes 18.775 0 0
lowerback 3.15315 1.13213 -0.317021
upperback -0.297715 1.54298 2.05108
thorax -2.13833 0.786902 2.20754
lowerneck -10.6307 -4.8356 2.16485
upperneck -0.487372 -6.69874 0.822634
head 1.59477 -3.31149 -0.407235
lclavicle -1.05232e-14 -1.78906e-15 0
lhumerus -46.6826 -10.7064 94.0168
lradius 49.2289 0 0
lwrist 15.1652 0 0
lhand 8.32967 9.00768 0
lfingers 7.12502 0 0
lthumb 33.5404 35.8923 0
rclavicle -1.05232e-14 -1.78906e-15 0
rhumerus -42.7698 1.23965 -69.1841
rradius 50.4904 0 0
rwrist 3.87067 0 0
rhand -22.1336 -15.8497 0
rfingers 7.12502 0 0
rthumb 4.27979 -45.7864 0
107
root 7.55364 16.7379 -26.6372 1.0905 12.3216 -2.82936
lfemur -22.7962 -2.39459 -12.9925
ltibia 36.998 0 0
lfoot -17.2207 -8.06902 0
ltoes 25.1704 0 0
rfemur -42.8215 -5.26897 1.51096
rtibia 89.3728 0 0
rfoot 33.7748 22.8995 0
rtoes 17.9451 0 0
lowerback 3.61489 1.00238 -0.514463
upperback -0.114632 1.35451 2.04318
thorax -2.20158 0.692616 2.32092
lowerneck -10.6834 -4.76476 2.10923
upperneck -0.337474 -6.60259 0.822834
head 1.65458 -3.26135 -0.396017
lclavicle -1.08162e-14 -1.53305e-15 0
lhumerus -46.6096 -10.8748 94.0121
lradius 49.3676 0 0
lwrist 15.2393 0 0
lhand 8.65126 9.05503 0
lfingers 7.12502 0 0
lthumb 33.8489 35.9005 0
rclavicle -1.08162e-14 -1.53305e-15 0
rhumerus -42.8099 0.920477 -68.3551
rradius 51.0417 0 0
rwrist 3.44406 0 0
rhand -21.2126 -15.7706 0
rfingers 7.12502 0 0
rthumb 5.16404 -45.2237 0
108
root 7.57666 16.7444 -26.6267 0.543412 12.2773 -2.60868
lfemur -21.8786 -2.2198 -13.2615
ltibia 36.5652 0 0
lfoot -17.0948 -8.38582 0
ltoes 25.5525 0 0
rfemur -44.5096 -5.89304 2.19553
rtibia 88.8806 0 0
rfoot 33.6792 23.5438 0
rtoes 16.6702 0 0
lowerback 4.12873 0.873692 -0.718037
upperback 0.0974036 1.16361 2.0248
thorax -2.26106 0.596682 2.43047
lowerneck -10.7465 -4.66546 2.05502
upperneck -0.192837 -6.46871 0.822485
head 1.71491 -3.1926 -0.38336
lclavicle -1.12182e-14 -1.01979e-15 0
lhumerus -46.4988 -11.0298 93.9809
lradius 49.5073 0 0
lwrist 15.2876 0 0
lhand 8.85814 9.0456 0
lfingers 7.12502 0 0
lthumb 34.0482 35.8733 0
rclavicle -1.12182e-14 -1.01979e-15 0
rhumerus -42.7891 0.561193 -67.4875
rradius 51.6257 0 0
rwrist 2.94352 0 0
rhand -19.9999 -15.6593 0
rfingers 7.12502 0 0
rthumb 6.32854 -43.9024 0
109
root 7.59967 16.751 -26.6163 -0.0423296 12.1592 -2.37398
lfemur -20.89 -1.94924 -13.5577
ltibia 36.106 0 0
lfoot -16.9535 -8.68548 0
ltoes 25.9959 0 0
rfemur -46.269 -6.61358 3.13907
rtibia 87.8078 0 0
rfoot 33.1232 24.0406 0
rtoes 14.9946 0 0
lowerback 4.68828 0.745815 -0.927027
upperback 0.335 0.970303 1.99663
thorax -2.31688 0.499162 2.53624
lowerneck -10.8187 -4.54072 2.00192
upperneck -0.0536238 -6.30109 0.822135
head 1.77546 -3.10721 -0.369225
lclavicle -1.17046e-14 -2.76445e-16 0
lhumerus -46.3531 -11.1744 93.9259
lradius 49.6468 0 0
lwrist 15.3116 0 0
lhand 8.96231 8.98536 0
lfingers 7.12502 0 0
lthumb 34.1497 35.8143 0
rclavicle -1.17046e-14 -2.76445e-16 0
rhumerus -42.7149 0.165035 -66.5897
rradius 52.2413 0 0
rwrist 2.37758 0 0
rhand -18.532 -15.5236 0
rfingers 7.12502 0 0
rthumb 7.73816 -41.95 0
110
root 7.62269 16.7575 -26.6058 -0.660373 11.9766 -2.12728
lfemur -19.8421 -1.59127 -13.8771
ltibia 35.626 0 0
lfoot -16.7991 -8.96715 0
ltoes 26.4893 0 0
rfemur -48.0885 -7.42014 4.31435
rtibia 86.2238 0 0
rfoot 32.1555 24.4022 0
rtoes 12.9629 0 0
lowerback 5.28713 0.618517 -1.14072
upperback 0.594764 0.774622 1.95936
thorax -2.3692 0.400118 2.63826
lowerneck -10.8988 -4.39358 1.94966
upperneck 0.080003 -6.10373 0.822332
head 1.83595 -3.00714 -0.353573
lclavicle -1.22505e-14 6.69803e-16 0
lhumerus -46.1753 -11.3117 93.8497
lradius 49.7851 0 0
lwrist 15.3127 0 0
lhand 8.97576 8.88025 0
lfingers 7.12502 0 0
lthumb 34.1648 35.7267 0
rclavicle -1.22505e-14 6.69803e-16 0
rhumerus -42.5946 -0.264759 -65.6698
rradius 52.8871 0 0
rwrist 1.75474 0 0
rhand -16.8455 -15.3712 0
rfingers 7.12502 0 0
rthumb 9.35778 -39.4942 0
111
root 7.64571 16.7641 -26.5953 -1.30437 11.7386 -1.87061
lfemur -18.7464 -1.15422 -14.2162
ltibia 35.1305 0 0
lfoot -16.6343 -9.22996 0
ltoes 27.021 0 0
rfemur -49.9572 -8.30229 5.69416
rtibia 84.1977 0 0
rfoot 30.8249 24.6411 0
rtoes 10.6195 0 0
lowerback 5.91889 0.49156 -1.3584
upperback 0.873301 0.576593 1.91367
thorax -2.41814 0.299612 2.73659
lowerneck -10.9857 -4.22706 1.89796
upperneck 0.20788 -5.8806 0.823623
head 1.89608 -2.89437 -0.336365
lclavicle -1.28311e-14 1.79178e-15 0
lhumerus -45.9683 -11.445 93.755
lradius 49.9208 0 0
lwrist 15.2926 0 0
lhand 8.91048 8.73624 0
lfingers 7.12502 0 0
lthumb 34.1048 35.6139 0
rclavicle -1.28311e-14 1.79178e-15 0
rhumerus -42.4358 -0.724952 -64.736
rradius 53.562 0 0
rwrist 1.08351 0 0
rhand -14.9769 -15.21 0
rfingers 7.12502 0 0
rthumb 11.1523 -36.6624 0
112
root 7.66873 16.7706 -26.5848 -1.96796 11.4546 -1.606
lfemur -17.6146 -0.646436 -14.5712
ltibia 34.625 0 0
lfoot -16.4614 -9.47307 0
ltoes 27.5794 0 0
rfemur -51.8639 -9.24958 7.25127
rtibia 81.7989 0 0
rfoot 29.1803 24.7695 0
rtoes 8.00877 0 0
lowerback 6.57716 0.364707 -1.57937
upperback 1.16722 0.376244 1.86027
thorax -2.46384 0.197708 2.83127
lowerneck -11.0781 -4.04418 1.84651
upperneck 0.329843 -5.63572 0.826556
head 1.95558 -2.77085 -0.317561
lclavicle -1.34217e-14 3.06232e-15 0
lhumerus -45.735 -11.5772 93.6446
lradius 50.053 0 0
lwrist 15.2528 0 0
lhand 8.77847 8.55928 0
lfingers 7.12502 0 0
lthumb 33.9812 35.4794 0
rclavicle -1.34217e-14 3.06232e-15 0
rhumerus -42.2457 -1.2123 -63.7966
rradius 54.2648 0 0
rwrist 0.372396 0 0
rhand -12.9628 -15.0476 0
rfingers 7.12502 0 0
rthumb 13.0865 -33.5822 0
113
root 7.69175 16.7772 -26.5743 -2.64479 11.1337 -1.33548
lfemur -16.4583 -0.0762556 -14.9382
ltibia 34.1148 0 0
lfoot -16.2831 -9.69562 0
ltoes 28.153 0 0
rfemur -53.7977 -10.2516 8.95846
rtibia 79.0966 0 0
rfoot 27.2704 24.8 0
rtoes 5.17519 0 0
lowerback 7.25554 0.23772 -1.80289
upperback 1.47313 0.173603 1.79983
thorax -2.50643 0.094466 2.92233
lowerneck -11.1749 -3.84799 1.79505
upperneck 0.44573 -5.37306 0.831679
head 2.01414 -2.63856 -0.297122
lclavicle -1.39973e-14 4.45424e-15 0
lhumerus -45.4783 -11.7116 93.5211
lradius 50.1805 0 0
lwrist 15.1948 0 0
lhand 8.59172 8.35533 0
lfingers 7.12502 0 0
lthumb 33.8052 35.3266 0
rclavicle -1.39973e-14 4.45424e-15 0
rhumerus -42.0319 -1.72358 -62.8597
rradius 54.9941 0 0
rwrist -0.370089 0 0
rhand -10.8398 -14.892 0
rfingers 7.12502 0 0
rthumb 15.1253 -30.3814 0
114
root 7.71476 16.7838 -26.5639 -3.32852 10.7851 -1.06107
lfemur -15.289 0.547976 -15.3136
ltibia 33.6054 0 0
lfoot -16.1018 -9.89677 0
ltoes 28.7303 0 0
rfemur -55.7475 -11.2978 10.7885
rtibia 76.1601 0 0
rfoot 25.144 24.745 0
rtoes 2.16321 0 0
lowerback 7.94765 0.110364 -2.02826
upperback 1.78763 -0.0313031 1.73306
thorax -2.54605 -0.0100503 3.00983
lowerneck -11.2748 -3.6415 1.74329
upperneck 0.555377 -5.09663 0.839538
head 2.07148 -2.49946 -0.27501
lclavicle -1.45333e-14 5.94037e-15 0
lhumerus -45.201 -11.8513 93.3872
lradius 50.3021 0 0
lwrist 15.1201 0 0
lhand 8.36221 8.13036 0
lfingers 7.12502 0 0
lthumb 33.5884 35.1588 0
rclavicle -1.45333e-14 5.94037e-15 0
rhumerus -41.8017 -2.25554 -61.9336
rradius 55.7489 0 0
rwrist -1.13543 0 0
rhand -8.6444 -14.7509 0
rfingers 7.12502 0 0
rthumb 17.2336 -27.1873 0
